<svg width="188" height="183" viewBox="0 0 188 183" fill="none" xmlns="http://www.w3.org/2000/svg">
<path d="M111.388 6.28684C111.898 3.79061 110.273 1.3473 107.751 0.984297C91.2895 -1.38536 74.4463 0.538004 58.9543 6.59705C43.5337 12.6282 30.059 22.5196 19.8747 35.2321C18.2375 37.2758 18.7702 40.2519 20.9343 41.7262V41.7262C23.0224 43.1486 25.8533 42.6376 27.4387 40.6705C36.5865 29.3199 48.6566 20.4855 62.4589 15.0873C76.2873 9.67893 91.312 7.93182 106.011 9.98418C108.498 10.3314 110.886 8.74696 111.388 6.28684V6.28684Z" fill="#FFBD19"/>
<path d="M18.8999 44.2612C16.7582 42.9141 13.9213 43.5153 12.6289 45.6905C5.17346 58.2383 0.887409 72.3318 0.123732 86.8062C-0.01303 89.3984 2.10426 91.5041 4.69999 91.504V91.504C7.29573 91.5039 9.38554 89.3976 9.5375 86.8063C10.2785 74.1702 14.0025 61.8688 20.4191 50.861C21.7383 48.5977 21.1174 45.6561 18.8999 44.2612V44.2612Z" fill="#30D476"/>
<path d="M174.796 54.7007C177.181 53.6144 178.218 50.7738 176.96 48.4748C171.053 37.6836 162.976 28.1392 153.192 20.4194C143.319 12.6292 131.938 6.87852 119.745 3.49862C117.327 2.82846 114.885 4.35507 114.3 6.7948V6.7948C113.706 9.27604 115.257 11.7531 117.711 12.4506C128.481 15.5115 138.533 20.6316 147.273 27.5275C156.003 34.4159 163.223 42.9185 168.527 52.5286C169.757 54.757 172.479 55.7556 174.796 54.7007V54.7007Z" fill="#ED6B4D"/>
<path d="M183.286 93.2822C185.88 93.3339 188.037 91.274 187.955 88.6816C187.643 78.8171 185.693 69.0659 182.181 59.8071C181.277 57.4236 178.56 56.3423 176.207 57.321V57.321C173.787 58.327 172.678 61.1196 173.588 63.5769C176.552 71.58 178.223 79.9823 178.543 88.4839C178.641 91.0798 180.689 93.2303 183.286 93.2822V93.2822Z" fill="#CD2D2E"/>
<path d="M16.5 60.5C16.5 63.6467 13.7612 66.5 10 66.5C6.23881 66.5 3.5 63.6467 3.5 60.5C3.5 57.3533 6.23881 54.5 10 54.5C13.7612 54.5 16.5 57.3533 16.5 60.5Z" fill="#ED6B4D" stroke="white" stroke-width="7"/>
</svg>
