<svg width="35" height="35" viewBox="0 0 35 35" fill="none" xmlns="http://www.w3.org/2000/svg">
<path d="M23.5371 3.11548C23.4671 3.55297 23.4321 3.99046 23.4321 4.42796C23.4321 8.3654 26.6171 11.5486 30.537 11.5486C30.9745 11.5486 31.3945 11.4979 31.832 11.4279V25.5484C31.832 31.4826 28.3321 35 22.3822 35H9.45161C3.49995 35 0 31.4826 0 25.5484V12.6003C0 6.65043 3.49995 3.11548 9.45161 3.11548H23.5371ZM23.8889 13.7553C23.4146 13.7028 22.9439 13.9128 22.6622 14.2978L18.429 19.7752L13.5798 15.9603C13.2823 15.7328 12.9323 15.6435 12.5823 15.6803C12.2341 15.7328 11.9191 15.9235 11.7073 16.2035L6.52915 22.9427L6.4224 23.1002C6.12491 23.6584 6.26491 24.3759 6.7899 24.7627C7.03489 24.9202 7.29739 25.0251 7.59489 25.0251C7.99913 25.0426 8.38237 24.8309 8.62737 24.5002L13.0198 18.846L18.0072 22.5927L18.1647 22.6959C18.7247 22.9934 19.4247 22.8552 19.8272 22.3284L24.8846 15.8028L24.8146 15.8378C25.0946 15.4528 25.1471 14.9628 24.9546 14.5253C24.7639 14.0878 24.3421 13.7903 23.8889 13.7553ZM30.7822 0C33.1097 0 34.9996 1.88997 34.9996 4.21744C34.9996 6.5449 33.1097 8.43487 30.7822 8.43487C28.4547 8.43487 26.5648 6.5449 26.5648 4.21744C26.5648 1.88997 28.4547 0 30.7822 0Z" fill="#307C31"/>
</svg>
