<svg width="29" height="31" viewBox="0 0 29 31" fill="none" xmlns="http://www.w3.org/2000/svg">
<path d="M8.7497 15.3602C8.78812 15.8634 8.93821 16.4068 9.24543 16.9846C10.4359 19.2239 13.5883 20.6526 16.9038 20.2879C18.3419 20.1298 19.9057 19.6319 21.3914 18.5083C21.3914 18.5083 20.4848 18.6686 19.3606 18.5878C19.3606 18.5878 21.6146 17.7141 22.7557 16.476C22.7557 16.476 21.5244 16.9065 19.4821 16.6996C19.4821 16.6996 21.9009 16.3721 22.8427 14.4093C22.8427 14.4093 21.3422 15.1688 19.2731 14.4825C18.2006 14.1268 16.6678 13.3362 15.081 12.6614C12.217 11.4432 8.5679 12.9835 8.7497 15.3602Z" fill="#307C31"/>
<path d="M18.3238 22.879C26.9208 21.7717 28.0002 15.6094 28.0002 15.6094C26.965 15.9261 26.1338 15.582 26.1338 15.582C27.907 14.2155 27.7044 12.3359 27.7044 12.3359C26.8171 13.3918 25.2182 13.5757 25.2182 13.5757C25.4063 12.807 25.338 12.1247 25.338 12.1247C25.338 12.1247 24.1606 14.1776 19.1038 14.4235C19.1612 14.4439 19.2182 14.4642 19.2732 14.4824C21.3424 15.1687 22.8428 14.4092 22.8428 14.4092C21.901 16.372 19.4822 16.6994 19.4822 16.6994C21.5243 16.9065 22.7558 16.4758 22.7558 16.4758C21.6147 17.714 19.3607 18.5876 19.3607 18.5876C20.4849 18.6683 21.3916 18.5081 21.3916 18.5081C19.9058 19.6318 18.3419 20.1296 16.9039 20.2877C13.5884 20.6524 10.4361 19.2238 9.24554 16.9844C8.93832 16.4066 8.78838 15.8632 8.7498 15.3599C8.62392 13.7147 10.3343 12.471 12.3489 12.2651C11.8071 11.514 11.6556 10.6385 11.9243 9.80142C12.932 6.66045 12.8281 3.31129 9.07014 2.83214C5.54552 2.3828 4.52345 4.40649 4.31104 4.96305C4.35383 4.96733 4.39459 4.9805 4.42505 5.00384C4.6056 5.14202 5.00309 5.52966 5.00309 6.26415L4.76569 6.94203C4.76069 6.95624 4.7521 6.96872 4.74195 6.9805C6.82764 7.56271 6.18728 9.96722 4.92906 13.92C3.67739 17.8525 6.69082 22.0578 13.1825 22.8979C13.344 23.2291 13.5487 23.5493 13.7986 23.8511C14.1488 24.2739 14.5886 24.6748 14.7417 25.1537C14.8288 25.0304 15.0414 24.9437 15.1285 24.8204C15.3581 25.0258 15.4625 25.1946 15.6922 25.4001C16.0022 25.1995 16.1861 24.9717 16.4086 24.7188C16.6663 24.8754 17.0115 25.0286 17.2691 25.1852C17.2998 24.8783 17.4043 24.7188 17.5466 24.4141C17.7431 24.5403 18.1349 24.5943 18.3314 24.7204C18.0376 24.4259 18.0912 24.0236 18.223 23.6746C18.2233 23.6745 18.3077 23.3489 18.3238 22.879Z" fill="#307C31"/>
<path d="M14.1117 24.2103C14.0058 24.0907 13.8986 23.9717 13.7987 23.8509C13.5486 23.549 13.344 23.2288 13.1825 22.8977C11.4686 22.6759 9.99965 22.2178 8.78516 21.5938C8.88215 22.387 9.22466 23.1653 9.79255 23.8509C10.1427 24.2737 10.5825 24.6746 10.7356 25.1535C10.8227 25.0303 11.0353 24.9435 11.1225 24.8202C11.3521 25.0256 11.4564 25.1944 11.6861 25.3999C11.9962 25.1993 12.18 24.9716 12.4025 24.7187C12.6603 24.8752 13.0054 25.0284 13.263 25.185C13.2937 24.8781 13.3982 24.7187 13.5405 24.414C13.737 24.5401 14.1289 24.5941 14.3253 24.7203C14.1763 24.571 14.1171 24.394 14.1117 24.2103Z" fill="#307C31"/>
<path d="M5.6171 9.76857C5.7558 9.73795 5.90042 9.69347 6.05052 9.63328C6.22419 8.20762 5.91245 7.3071 4.74216 6.98047C4.69218 7.03835 4.58707 7.06366 4.49617 7.03154C4.48258 7.02669 4.46633 7.02114 4.4515 7.01594C4.53709 7.31877 4.57457 7.83905 4.13538 8.41814C3.58608 9.14234 4.51475 10.0116 5.6171 9.76857Z" fill="#307C31"/>
<path d="M9.06991 2.8319C10.6428 3.03248 11.5739 3.73693 12.0529 4.71729C13.1151 3.12491 11.7653 2.59862 11.2104 2.4557C11.0861 2.42358 11.0002 2.34293 10.9943 2.24865C10.9736 1.92213 10.7978 1.19897 9.66154 1.03675C8.45283 0.864132 7.85292 1.33889 7.59928 1.64507C7.50744 1.75587 7.30534 1.79146 7.15306 1.72248C6.72183 1.52722 5.86172 1.28955 4.92914 1.88158C3.75698 2.62554 4.53759 3.74178 4.8309 4.09371C5.44908 3.35426 6.68716 2.52803 9.06991 2.8319Z" fill="#307C31"/>
<path d="M4.42501 5.00339C4.37565 4.96561 4.30006 4.95094 4.23056 4.9655C2.39976 5.34701 1.4336 6.02743 1.02705 6.38999C0.950835 6.45805 1.04829 6.55256 1.16262 6.52206C2.99592 6.03263 5.0032 6.26371 5.0032 6.26371C5.00305 5.52922 4.60556 5.14158 4.42501 5.00339Z" fill="#307C31"/>
<path d="M1.78271 6.38417C2.84399 6.47752 4.02428 6.86447 4.4958 7.03154C4.60497 7.07024 4.73601 7.02657 4.76553 6.94211L5.00293 6.26423C5.00293 6.26423 3.42062 6.08249 1.78271 6.38417Z" fill="#307C31"/>
<path d="M18.0126 25.7116C17.8438 25.3994 17.8149 24.9641 17.7627 24.5103C17.6807 24.482 17.6048 24.4513 17.5469 24.4141C17.4046 24.7187 17.3001 24.8782 17.2693 25.1851C17.0116 25.0285 16.6664 24.8753 16.4089 24.7187C16.1965 24.96 16.0183 25.178 15.7332 25.3717C16.1884 25.98 16.5087 26.3764 16.5087 26.3764C16.1393 26.9637 16.221 26.8971 16.0651 27.5889C15.9553 28.0763 15.6044 28.2841 15.4462 28.6322C15.4032 28.7266 15.2663 28.7774 15.1374 28.7488C13.8279 28.4575 13.4494 28.6763 12.8452 29.1201C12.6669 29.2513 12.5127 29.51 12.6006 29.7256C12.6826 29.9266 12.9129 30.0382 13.2458 29.9603C13.6636 29.8626 14.2578 29.759 14.6696 29.8351C15.1711 29.9279 15.6726 29.8873 15.915 29.8571C16.0086 29.8455 16.104 29.855 16.1898 29.8848C16.3848 29.9525 16.7919 30.0554 17.2863 29.964C17.6325 29.9 17.8928 29.9312 18.0673 29.9791C18.1935 30.0136 18.3267 29.9302 18.2997 29.8327C18.1208 29.1897 17.2865 29.1897 17.2865 29.1897C16.5887 28.6735 18.2013 26.8728 18.2013 26.8728C18.5519 26.2068 18.0126 25.7116 18.0126 25.7116Z" fill="#307C31"/>
<path d="M13.1032 29.9817C12.8475 30.0012 12.6703 29.8963 12.6006 29.7256C12.5125 29.51 12.6668 29.2512 12.8452 29.1201C12.94 29.0505 13.029 28.9873 13.1171 28.9298C12.9751 28.2354 14.1949 26.873 14.1949 26.873C14.5456 26.2068 14.0063 25.7116 14.0063 25.7116C13.8374 25.3994 13.8085 24.9642 13.7564 24.5103C13.6744 24.482 13.5985 24.4513 13.5405 24.4141C13.3982 24.7187 13.2937 24.8782 13.263 25.1851C13.0053 25.0285 12.6601 24.8753 12.4026 24.7187C12.1901 24.96 12.0119 25.178 11.7269 25.3717C12.182 25.98 12.5024 26.3764 12.5024 26.3764C12.133 26.9637 12.2147 26.8971 12.0588 27.5889C11.949 28.0763 11.598 28.2841 11.4398 28.6322C11.3969 28.7266 11.2599 28.7774 11.1311 28.7488C9.8216 28.4575 9.44301 28.6763 8.83888 29.1201C8.66052 29.2513 8.50637 29.51 8.5943 29.7256C8.6763 29.9266 8.90651 30.0382 9.2395 29.9603C9.65729 29.8626 10.2514 29.759 10.6633 29.8351C11.1648 29.9279 11.6663 29.8873 11.9087 29.8571C12.0022 29.8455 12.0977 29.855 12.1834 29.8848C12.3548 29.9443 12.6893 30.0307 13.1032 29.9891V29.9817Z" fill="#307C31"/>
<path d="M4.42501 5.00339C4.37565 4.96561 4.30006 4.95094 4.23056 4.9655C2.39976 5.34701 1.4336 6.02743 1.02705 6.38999C0.950835 6.45805 1.04829 6.55256 1.16262 6.52206C2.99592 6.03263 5.0032 6.26371 5.0032 6.26371C5.00305 5.52922 4.60556 5.14158 4.42501 5.00339Z" fill="#307C31" stroke="#307C31" stroke-miterlimit="10" stroke-linecap="round" stroke-linejoin="round"/>
<path d="M1.78271 6.38417C2.84399 6.47752 4.02428 6.86447 4.4958 7.03154C4.60497 7.07024 4.73601 7.02657 4.76553 6.94211L5.00293 6.26423C5.00293 6.26423 3.42062 6.08249 1.78271 6.38417Z" fill="#307C31" stroke="#307C31" stroke-miterlimit="10" stroke-linecap="round" stroke-linejoin="round"/>
<path d="M25.2183 13.5752C25.183 13.7196 25.1386 13.8669 25.083 14.0136L25.2183 13.5752Z" fill="#307C31"/>
<path d="M25.2183 13.5752C25.183 13.7196 25.1386 13.8669 25.083 14.0136" stroke="#307C31" stroke-miterlimit="10" stroke-linecap="round" stroke-linejoin="round"/>
<path d="M26.1336 15.582C25.9821 15.6988 25.8161 15.8118 25.6343 15.9198L26.1336 15.582Z" fill="#307C31"/>
<path d="M26.1336 15.582C25.9821 15.6988 25.8161 15.8118 25.6343 15.9198" stroke="#307C31" stroke-miterlimit="10" stroke-linecap="round" stroke-linejoin="round"/>
<path d="M5.6171 9.76857C5.7558 9.73795 5.90042 9.69347 6.05052 9.63328C6.22419 8.20762 5.91245 7.3071 4.74216 6.98047C4.69218 7.03835 4.58707 7.06366 4.49617 7.03154C4.48258 7.02669 4.46633 7.02114 4.4515 7.01594C4.53709 7.31877 4.57457 7.83905 4.13538 8.41814C3.58608 9.14234 4.51475 10.0116 5.6171 9.76857Z" fill="#307C31" stroke="#307C31" stroke-miterlimit="10" stroke-linecap="round" stroke-linejoin="round"/>
<path d="M9.06991 2.8319C10.6428 3.03248 11.5739 3.73693 12.0529 4.71729C13.1151 3.12491 11.7653 2.59862 11.2104 2.4557C11.0861 2.42358 11.0002 2.34293 10.9943 2.24865C10.9736 1.92213 10.7978 1.19897 9.66154 1.03675C8.45283 0.864132 7.85292 1.33889 7.59928 1.64507C7.50744 1.75587 7.30534 1.79146 7.15306 1.72248C6.72183 1.52722 5.86172 1.28955 4.92914 1.88158C3.75698 2.62554 4.53759 3.74178 4.8309 4.09371C5.44908 3.35426 6.68716 2.52803 9.06991 2.8319Z" fill="#307C31" stroke="#307C31" stroke-miterlimit="10" stroke-linecap="round" stroke-linejoin="round"/>
<path d="M7.0459 5.46859C7.04419 5.09724 7.46448 4.79522 7.98457 4.79395C8.50467 4.79279 8.92762 5.09285 8.92933 5.4642" fill="#307C31"/>
<path d="M7.0459 5.46859C7.04419 5.09724 7.46448 4.79522 7.98457 4.79395C8.50467 4.79279 8.92762 5.09285 8.92934 5.4642" stroke="#307C31" stroke-miterlimit="10" stroke-linecap="round" stroke-linejoin="round"/>
<path d="M19.3605 18.5873C18.8391 18.5499 18.2709 18.4606 17.7246 18.2793L19.3605 18.5873Z" fill="#307C31"/>
<path d="M19.3605 18.5873C18.8391 18.5499 18.2709 18.4606 17.7246 18.2793" stroke="#307C31" stroke-miterlimit="10" stroke-linecap="round" stroke-linejoin="round"/>
<path d="M19.4823 16.6994C19.0245 16.653 18.5262 16.5746 17.9917 16.4521L19.4823 16.6994Z" fill="#307C31"/>
<path d="M19.4823 16.6994C19.0245 16.653 18.5262 16.5746 17.9917 16.4521" stroke="#307C31" stroke-miterlimit="10" stroke-linecap="round" stroke-linejoin="round"/>
<path d="M8.7497 15.3602C8.78812 15.8634 8.93821 16.4068 9.24543 16.9846C10.4359 19.2239 13.5883 20.6526 16.9038 20.2879C18.3419 20.1298 19.9057 19.6319 21.3914 18.5083C21.3914 18.5083 20.4848 18.6686 19.3606 18.5878C19.3606 18.5878 21.6146 17.7141 22.7557 16.476C22.7557 16.476 21.5244 16.9065 19.4821 16.6996C19.4821 16.6996 21.9009 16.3721 22.8427 14.4093C22.8427 14.4093 21.3422 15.1688 19.2731 14.4825C18.2006 14.1268 16.6678 13.3362 15.081 12.6614C12.217 11.4432 8.5679 12.9835 8.7497 15.3602Z" fill="#307C31" stroke="#307C31" stroke-miterlimit="10" stroke-linecap="round" stroke-linejoin="round"/>
<path d="M12.7676 21.3613C12.8205 22.2345 13.1758 23.0984 13.799 23.8508C14.1492 24.2736 14.589 24.6746 14.7421 25.1535C14.8292 25.0302 15.0418 24.9434 15.1289 24.8201C15.3585 25.0256 15.463 25.1944 15.6926 25.3998C16.0026 25.1992 16.1865 24.9715 16.409 24.7186C16.6667 24.8751 17.0119 25.0283 17.2694 25.1849C17.3002 24.878 17.4047 24.7186 17.547 24.4139C17.7435 24.5401 18.1353 24.594 18.3318 24.7202C18.038 24.4257 18.0916 24.0234 18.2234 23.6743C18.2234 23.6743 18.4708 22.7289 18.2012 21.7287" fill="#307C31"/>
<path d="M12.7676 21.3613C12.8205 22.2345 13.1758 23.0984 13.799 23.8508C14.1492 24.2736 14.589 24.6746 14.7421 25.1535C14.8292 25.0302 15.0418 24.9434 15.1289 24.8201C15.3585 25.0256 15.463 25.1944 15.6926 25.3998C16.0026 25.1992 16.1865 24.9715 16.409 24.7186C16.6667 24.8751 17.0119 25.0283 17.2694 25.1849C17.3002 24.878 17.4047 24.7186 17.547 24.4139C17.7435 24.5401 18.1353 24.594 18.3318 24.7202C18.038 24.4257 18.0916 24.0234 18.2234 23.6743C18.2234 23.6743 18.4708 22.7289 18.2012 21.7287" stroke="#307C31" stroke-miterlimit="10" stroke-linecap="round" stroke-linejoin="round"/>
<path d="M18.3238 22.879C26.9208 21.7717 28.0002 15.6094 28.0002 15.6094C26.965 15.9261 26.1338 15.582 26.1338 15.582C27.907 14.2155 27.7044 12.3359 27.7044 12.3359C26.8171 13.3918 25.2182 13.5757 25.2182 13.5757C25.4063 12.807 25.338 12.1247 25.338 12.1247C25.338 12.1247 24.1606 14.1776 19.1038 14.4235C19.1612 14.4439 19.2182 14.4642 19.2732 14.4824C21.3424 15.1687 22.8428 14.4092 22.8428 14.4092C21.901 16.372 19.4822 16.6994 19.4822 16.6994C21.5243 16.9065 22.7558 16.4758 22.7558 16.4758C21.6147 17.714 19.3607 18.5876 19.3607 18.5876C20.4849 18.6683 21.3916 18.5081 21.3916 18.5081C19.9058 19.6318 18.3419 20.1296 16.9039 20.2877C13.5884 20.6524 10.4361 19.2238 9.24554 16.9844C8.93832 16.4066 8.78838 15.8632 8.7498 15.3599C8.62392 13.7147 10.3343 12.471 12.3489 12.2651C11.8071 11.514 11.6556 10.6385 11.9243 9.80142C12.932 6.66045 12.8281 3.31129 9.07014 2.83214C5.54552 2.3828 4.52345 4.40649 4.31104 4.96305C4.35383 4.96733 4.39459 4.9805 4.42505 5.00384C4.6056 5.14202 5.00309 5.52966 5.00309 6.26415L4.76569 6.94203C4.76069 6.95624 4.7521 6.96872 4.74195 6.9805C6.82764 7.56271 6.18728 9.96722 4.92906 13.92C3.67739 17.8525 6.69082 22.0578 13.1825 22.8979C13.344 23.2291 13.5487 23.5493 13.7986 23.8511C14.1488 24.2739 14.5886 24.6748 14.7417 25.1537C14.8288 25.0304 15.0414 24.9437 15.1285 24.8204C15.3581 25.0258 15.4625 25.1946 15.6922 25.4001C16.0022 25.1995 16.1861 24.9717 16.4086 24.7188C16.6663 24.8754 17.0115 25.0286 17.2691 25.1852C17.2998 24.8783 17.4043 24.7188 17.5466 24.4141C17.7431 24.5403 18.1349 24.5943 18.3314 24.7204C18.0376 24.4259 18.0912 24.0236 18.223 23.6746C18.2233 23.6745 18.3077 23.3489 18.3238 22.879Z" fill="#307C31" stroke="#307C31" stroke-miterlimit="10" stroke-linecap="round" stroke-linejoin="round"/>
<path d="M18.0126 25.7116C17.8438 25.3994 17.8149 24.9641 17.7627 24.5103C17.6807 24.482 17.6048 24.4513 17.5469 24.4141C17.4046 24.7187 17.3001 24.8782 17.2693 25.1851C17.0116 25.0285 16.6664 24.8753 16.4089 24.7187C16.1965 24.96 16.0183 25.178 15.7332 25.3717C16.1884 25.98 16.5087 26.3764 16.5087 26.3764C16.1393 26.9637 16.221 26.8971 16.0651 27.5889C15.9553 28.0763 15.6044 28.2841 15.4462 28.6322C15.4032 28.7266 15.2663 28.7774 15.1374 28.7488C13.8279 28.4575 13.4494 28.6763 12.8452 29.1201C12.6669 29.2513 12.5127 29.51 12.6006 29.7256C12.6826 29.9266 12.9129 30.0382 13.2458 29.9603C13.6636 29.8626 14.2578 29.759 14.6696 29.8351C15.1711 29.9279 15.6726 29.8873 15.915 29.8571C16.0086 29.8455 16.104 29.855 16.1898 29.8848C16.3848 29.9525 16.7919 30.0554 17.2863 29.964C17.6325 29.9 17.8928 29.9312 18.0673 29.9791C18.1935 30.0136 18.3267 29.9302 18.2997 29.8327C18.1208 29.1897 17.2865 29.1897 17.2865 29.1897C16.5887 28.6735 18.2013 26.8728 18.2013 26.8728C18.5519 26.2068 18.0126 25.7116 18.0126 25.7116Z" fill="#307C31" stroke="#307C31" stroke-miterlimit="10" stroke-linecap="round" stroke-linejoin="round"/>
<path d="M14.1117 24.2103C14.0058 24.0907 13.8986 23.9717 13.7987 23.8509C13.5486 23.549 13.344 23.2288 13.1825 22.8977C11.4686 22.6759 9.99965 22.2178 8.78516 21.5938C8.88215 22.387 9.22466 23.1653 9.79255 23.8509C10.1427 24.2737 10.5825 24.6746 10.7356 25.1535C10.8227 25.0303 11.0353 24.9435 11.1225 24.8202C11.3521 25.0256 11.4564 25.1944 11.6861 25.3999C11.9962 25.1993 12.18 24.9716 12.4025 24.7187C12.6603 24.8752 13.0054 25.0284 13.263 25.185C13.2937 24.8781 13.3982 24.7187 13.5405 24.414C13.737 24.5401 14.1289 24.5941 14.3253 24.7203C14.1763 24.571 14.1171 24.394 14.1117 24.2103Z" fill="#307C31" stroke="#307C31" stroke-miterlimit="10" stroke-linecap="round" stroke-linejoin="round"/>
<path d="M13.1032 29.9817C12.8475 30.0012 12.6703 29.8963 12.6006 29.7256C12.5125 29.51 12.6668 29.2512 12.8452 29.1201C12.94 29.0505 13.029 28.9873 13.1171 28.9298C12.9751 28.2354 14.1949 26.873 14.1949 26.873C14.5456 26.2068 14.0063 25.7116 14.0063 25.7116C13.8374 25.3994 13.8085 24.9642 13.7564 24.5103C13.6744 24.482 13.5985 24.4513 13.5405 24.4141C13.3982 24.7187 13.2937 24.8782 13.263 25.1851C13.0053 25.0285 12.6601 24.8753 12.4026 24.7187C12.1901 24.96 12.0119 25.178 11.7269 25.3717C12.182 25.98 12.5024 26.3764 12.5024 26.3764C12.133 26.9637 12.2147 26.8971 12.0588 27.5889C11.949 28.0763 11.598 28.2841 11.4398 28.6322C11.3969 28.7266 11.2599 28.7774 11.1311 28.7488C9.8216 28.4575 9.44301 28.6763 8.83888 29.1201C8.66052 29.2513 8.50637 29.51 8.5943 29.7256C8.6763 29.9266 8.90651 30.0382 9.2395 29.9603C9.65729 29.8626 10.2514 29.759 10.6633 29.8351C11.1648 29.9279 11.6663 29.8873 11.9087 29.8571C12.0022 29.8455 12.0977 29.855 12.1834 29.8848C12.3548 29.9443 12.6893 30.0307 13.1032 29.9891V29.9817Z" fill="#307C31" stroke="#307C31" stroke-miterlimit="10" stroke-linecap="round" stroke-linejoin="round"/>
</svg>
