<svg width="35" height="37" viewBox="0 0 35 37" fill="none" xmlns="http://www.w3.org/2000/svg">
<path d="M32.1444 16.4243H20.7153C20.5258 16.4243 20.3442 16.3491 20.2102 16.2151C20.0762 16.0811 20.001 15.8994 20.001 15.71V7.13815C20.001 6.9487 20.0762 6.76701 20.2102 6.63305C20.3442 6.49909 20.5258 6.42383 20.7153 6.42383H32.1444C32.3339 6.42383 32.5156 6.49909 32.6495 6.63305C32.7835 6.76701 32.8587 6.9487 32.8587 7.13815V15.71C32.8587 15.8994 32.7835 16.0811 32.6495 16.2151C32.5156 16.3491 32.3339 16.4243 32.1444 16.4243ZM21.4296 14.9957H31.4301V7.85247H21.4296V14.9957Z" fill="#307C31"/>
<path d="M34.2872 7.85281H18.5722C18.4253 7.85275 18.2821 7.80746 18.162 7.7231C18.0418 7.63874 17.9506 7.51942 17.9007 7.38136C17.8513 7.2425 17.8461 7.09176 17.8857 6.9498C17.9253 6.80785 18.0079 6.68164 18.1221 6.58846L25.9797 0.159583C26.1069 0.0563437 26.2658 0 26.4297 0C26.5935 0 26.7524 0.0563437 26.8797 0.159583L34.7372 6.58846C34.8514 6.68164 34.934 6.80785 34.9736 6.9498C35.0133 7.09176 35.0081 7.2425 34.9587 7.38136C34.9087 7.51942 34.8175 7.63874 34.6974 7.7231C34.5772 7.80746 34.434 7.85275 34.2872 7.85281ZM20.5722 6.42417H32.2871L26.4297 1.63108L20.5722 6.42417ZM27.8583 16.4247H25.001C24.8116 16.4247 24.6299 16.3494 24.4959 16.2154C24.362 16.0815 24.2867 15.8998 24.2867 15.7103V10.7101C24.2867 10.5206 24.362 10.339 24.4959 10.205C24.6299 10.071 24.8116 9.99577 25.001 9.99577H27.8583C28.0478 9.99577 28.2295 10.071 28.3634 10.205C28.4974 10.339 28.5726 10.5206 28.5726 10.7101V15.7103C28.5726 15.8998 28.4974 16.0815 28.3634 16.2154C28.2295 16.3494 28.0478 16.4247 27.8583 16.4247ZM25.7154 14.996H27.144V11.4244H25.7154V14.996Z" fill="#307C31"/>
<path d="M33.5731 16.4247H19.2866C19.0972 16.4247 18.9155 16.3495 18.7815 16.2155C18.6476 16.0816 18.5723 15.8999 18.5723 15.7104C18.5723 15.521 18.6476 15.3393 18.7815 15.2053C18.9155 15.0714 19.0972 14.9961 19.2866 14.9961H33.5731C33.7625 14.9961 33.9442 15.0714 34.0782 15.2053C34.2121 15.3393 34.2874 15.521 34.2874 15.7104C34.2874 15.8999 34.2121 16.0816 34.0782 16.2155C33.9442 16.3495 33.7625 16.4247 33.5731 16.4247ZM17.858 36.4257H0.71432C0.524871 36.4257 0.343181 36.3504 0.20922 36.2165C0.0752587 36.0825 0 35.9008 0 35.7114V25.7109C0 25.5214 0.0752587 25.3398 0.20922 25.2058C0.343181 25.0718 0.524871 24.9966 0.71432 24.9966H17.858C18.0475 24.9966 18.2291 25.0718 18.3631 25.2058C18.4971 25.3398 18.5723 25.5214 18.5723 25.7109V35.7114C18.5723 35.9008 18.4971 36.0825 18.3631 36.2165C18.2291 36.3504 18.0475 36.4257 17.858 36.4257ZM1.42864 34.9971H17.1437V26.4252H1.42864V34.9971Z" fill="#307C31"/>
<path d="M9.28637 34.2825C8.57998 34.2825 7.88945 34.073 7.3021 33.6805C6.71475 33.2881 6.25697 32.7303 5.98664 32.0777C5.71632 31.425 5.64559 30.7069 5.7834 30.0141C5.92121 29.3212 6.26137 28.6849 6.76087 28.1854C7.26037 27.6859 7.89677 27.3457 8.58959 27.2079C9.28241 27.0701 10.0005 27.1408 10.6532 27.4111C11.3058 27.6815 11.8636 28.1392 12.2561 28.7266C12.6485 29.3139 12.858 30.0045 12.858 30.7109C12.858 31.6581 12.4817 32.5666 11.8119 33.2364C11.1421 33.9062 10.2336 34.2825 9.28637 34.2825ZM9.28637 28.5679C8.86254 28.5679 8.44822 28.6936 8.09581 28.9291C7.7434 29.1645 7.46873 29.4992 7.30654 29.8908C7.14434 30.2824 7.1019 30.7132 7.18459 31.1289C7.26728 31.5446 7.47137 31.9265 7.77107 32.2262C8.07077 32.5259 8.45261 32.73 8.8683 32.8126C9.284 32.8953 9.71488 32.8529 10.1065 32.6907C10.498 32.5285 10.8327 32.2538 11.0682 31.9014C11.3037 31.549 11.4293 31.1347 11.4293 30.7109C11.4293 30.1425 11.2036 29.5974 10.8017 29.1956C10.3998 28.7937 9.85472 28.5679 9.28637 28.5679ZM5.00045 23.5677C4.811 23.5677 4.62931 23.4924 4.49535 23.3584C4.36139 23.2245 4.28613 23.0428 4.28613 22.8533V19.2817C4.28613 16.6294 5.33975 14.0858 7.21521 12.2103C9.09066 10.3349 11.6343 9.28125 14.2866 9.28125H17.8582C18.0477 9.28125 18.2294 9.35651 18.3633 9.49047C18.4973 9.62443 18.5725 9.80612 18.5725 9.99557C18.5725 10.185 18.4973 10.3667 18.3633 10.5007C18.2294 10.6346 18.0477 10.7099 17.8582 10.7099H14.2866C12.0132 10.7099 9.83294 11.613 8.22541 13.2205C6.61788 14.8281 5.71477 17.0083 5.71477 19.2817V22.8533C5.71477 23.0428 5.63951 23.2245 5.50555 23.3584C5.37159 23.4924 5.1899 23.5677 5.00045 23.5677Z" fill="#307C31"/>
<path d="M5.0006 23.5681C4.90659 23.5686 4.8134 23.5506 4.72637 23.5151C4.63934 23.4795 4.56018 23.4271 4.49343 23.3609L2.70763 21.5751C2.57312 21.4406 2.49756 21.2582 2.49756 21.068C2.49756 20.8777 2.57312 20.6953 2.70763 20.5608C2.84214 20.4263 3.02458 20.3507 3.2148 20.3507C3.40503 20.3507 3.58746 20.4263 3.72197 20.5608L5.0006 21.8466L6.27924 20.5608C6.34584 20.4942 6.42491 20.4414 6.51193 20.4053C6.59895 20.3693 6.69221 20.3507 6.7864 20.3507C6.88059 20.3507 6.97386 20.3693 7.06088 20.4053C7.1479 20.4414 7.22697 20.4942 7.29357 20.5608C7.36017 20.6274 7.413 20.7065 7.44905 20.7935C7.48509 20.8805 7.50365 20.9738 7.50365 21.068C7.50365 21.1621 7.48509 21.2554 7.44905 21.3424C7.413 21.4295 7.36017 21.5085 7.29357 21.5751L5.50777 23.3609C5.44102 23.4271 5.36187 23.4795 5.27483 23.5151C5.1878 23.5506 5.09461 23.5686 5.0006 23.5681ZM20.7156 32.1399C20.5262 32.1399 20.3445 32.0647 20.2105 31.9307C20.0766 31.7967 20.0013 31.615 20.0013 31.4256C20.0013 31.2362 20.0766 31.0545 20.2105 30.9205C20.3445 30.7865 20.5262 30.7113 20.7156 30.7113C22.989 30.7113 25.1693 29.8082 26.7769 28.2006C28.3844 26.5931 29.2875 24.4128 29.2875 22.1394V18.5678C29.2875 18.3784 29.3627 18.1967 29.4967 18.0627C29.6307 17.9288 29.8124 17.8535 30.0018 17.8535C30.1913 17.8535 30.3729 17.9288 30.5069 18.0627C30.6409 18.1967 30.7161 18.3784 30.7161 18.5678V22.1394C30.7161 24.7917 29.6625 27.3354 27.7871 29.2108C25.9116 31.0863 23.3679 32.1399 20.7156 32.1399Z" fill="#307C31"/>
<path d="M31.7874 21.0672C31.6934 21.0678 31.6002 21.0497 31.5131 21.0142C31.4261 20.9786 31.347 20.9263 31.2802 20.8601L30.0016 19.5743L28.7229 20.8601C28.6563 20.9267 28.5773 20.9795 28.4903 21.0155C28.4032 21.0516 28.31 21.0701 28.2158 21.0701C28.1216 21.0701 28.0283 21.0516 27.9413 21.0155C27.8543 20.9795 27.7752 20.9267 27.7086 20.8601C27.642 20.7935 27.5892 20.7144 27.5531 20.6274C27.5171 20.5404 27.4985 20.4471 27.4985 20.3529C27.4985 20.2587 27.5171 20.1654 27.5531 20.0784C27.5892 19.9914 27.642 19.9123 27.7086 19.8457L29.4944 18.0599C29.5608 17.993 29.6398 17.9398 29.7269 17.9036C29.8139 17.8673 29.9073 17.8486 30.0016 17.8486C30.0959 17.8486 30.1892 17.8673 30.2763 17.9036C30.3633 17.9398 30.4423 17.993 30.5087 18.0599L32.2945 19.8457C32.3615 19.9121 32.4146 19.9911 32.4509 20.0782C32.4872 20.1652 32.5058 20.2586 32.5058 20.3529C32.5058 20.4472 32.4872 20.5406 32.4509 20.6276C32.4146 20.7147 32.3615 20.7937 32.2945 20.8601C32.2278 20.9263 32.1486 20.9786 32.0616 21.0142C31.9746 21.0497 31.8814 21.0678 31.7874 21.0672Z" fill="#307C31"/>
</svg>
