<svg width="35" height="35" viewBox="0 0 35 35" fill="none" xmlns="http://www.w3.org/2000/svg">
<path d="M13.7644 1.54941C15.8126 -0.513838 19.1563 -0.513838 21.2221 1.53366L22.5001 2.80941C22.9902 3.29941 23.6555 3.58116 24.3557 3.58116H26.1589C29.0649 3.58116 31.4283 5.94191 31.4283 8.84691V10.6512C31.4283 11.3494 31.7084 12.0144 32.1986 12.5044L33.459 13.7644C34.4569 14.7444 34.9996 16.0744 34.9996 17.4744C35.0171 18.8744 34.4744 20.2062 33.494 21.2019L32.1986 22.4969C31.7084 22.9869 31.4283 23.6519 31.4283 24.3537V26.1544C31.4283 29.0594 29.0649 31.4237 26.1589 31.4237H24.3557C23.6555 31.4237 22.9902 31.7019 22.5001 32.1919L21.2396 33.4519C20.2067 34.4862 18.8587 34.9919 17.5107 34.9919C16.1628 34.9919 14.8148 34.4862 13.7819 33.4712L12.5039 32.1919C12.0138 31.7019 11.3485 31.4237 10.6483 31.4237H8.84511C5.93906 31.4237 3.5757 29.0594 3.5757 26.1544V24.3537C3.5757 23.6519 3.2956 22.9869 2.80542 22.4794L1.54496 21.2369C-0.503279 19.1912 -0.520786 15.8469 1.52746 13.7837L2.80542 12.5044C3.2956 12.0144 3.5757 11.3494 3.5757 10.6319V8.84691C3.5757 5.94191 5.93906 3.58116 8.84511 3.58116H10.6483C11.3485 3.58116 12.0138 3.29941 12.5039 2.80941L13.7644 1.54941ZM22.0099 20.4669C21.1521 20.4669 20.4693 21.1512 20.4693 21.9894C20.4693 22.8469 21.1521 23.5294 22.0099 23.5294C22.8502 23.5294 23.5329 22.8469 23.5329 21.9894C23.5329 21.1512 22.8502 20.4669 22.0099 20.4669ZM23.0778 11.9094C22.4826 11.3162 21.5197 11.3162 20.9245 11.9094L11.9262 20.9044C11.331 21.4994 11.331 22.4794 11.9262 23.0744C12.2063 23.3719 12.5915 23.5294 12.9941 23.5294C13.4143 23.5294 13.7994 23.3719 14.0795 23.0744L23.0778 14.0812C23.673 13.4862 23.673 12.5044 23.0778 11.9094ZM13.0116 11.4719C12.1713 11.4719 11.4711 12.1544 11.4711 12.9944C11.4711 13.8537 12.1713 14.5344 13.0116 14.5344C13.8519 14.5344 14.5347 13.8537 14.5347 12.9944C14.5347 12.1544 13.8519 11.4719 13.0116 11.4719Z" fill="#307C31"/>
</svg>
