<svg width="25" height="23" viewBox="0 0 25 23" fill="none" xmlns="http://www.w3.org/2000/svg">
<path d="M18.1444 0C22.4556 0 25 2.53587 25 6.87675H19.7111V6.92104C17.2565 6.92104 15.2667 8.90418 15.2667 11.3505C15.2667 13.7968 17.2565 15.78 19.7111 15.78H25V16.1786C25 20.4641 22.4556 23 18.1444 23H6.85556C2.54444 23 0 20.4641 0 16.1786V6.82138C0 2.53587 2.54444 0 6.85556 0H18.1444ZM24.0667 8.78142C24.5821 8.78142 25 9.19787 25 9.7116V12.9451C24.994 13.4563 24.5796 13.8693 24.0667 13.8753H19.8111C18.5685 13.892 17.4819 13.044 17.2 11.8377C17.0589 11.0889 17.257 10.3162 17.7413 9.72672C18.2257 9.13722 18.9467 8.79121 19.7111 8.78142H24.0667ZM20.3111 10.2764H19.9C19.6476 10.2734 19.4045 10.3713 19.225 10.5481C19.0455 10.7249 18.9444 10.9661 18.9444 11.2176C18.9444 11.7454 19.3705 12.175 19.9 12.181H20.3111C20.8388 12.181 21.2667 11.7547 21.2667 11.2287C21.2667 10.7027 20.8388 10.2764 20.3111 10.2764ZM12.9778 4.97208H5.92222C5.39879 4.97204 4.97275 5.39171 4.96667 5.91334C4.96667 6.44112 5.39269 6.87068 5.92222 6.87675H12.9778C13.5055 6.87675 13.9333 6.45037 13.9333 5.92441C13.9333 5.39845 13.5055 4.97208 12.9778 4.97208Z" fill="#307C31"/>
</svg>
