<svg width="223" height="208" viewBox="0 0 223 208" fill="none" xmlns="http://www.w3.org/2000/svg">
<ellipse cx="108" cy="98.6099" rx="70" ry="73.0495" fill="#307C31"/>
<ellipse cx="9" cy="9.39208" rx="9" ry="9.39208" fill="#307C31"/>
<ellipse cx="213" cy="94.9643" rx="10" ry="10.4356" fill="#307C31"/>
<ellipse cx="109.5" cy="3.65248" rx="3.5" ry="3.65248" fill="#307C31"/>
<ellipse cx="187.5" cy="114.27" rx="1.5" ry="1.56535" fill="#307C31"/>
<ellipse cx="87" cy="201.408" rx="6" ry="6.26139" fill="#307C31"/>
<ellipse cx="183.5" cy="157.056" rx="2.5" ry="2.60891" fill="#307C31"/>
<path d="M89.7538 116.574C85.8485 116.574 82.6538 119.908 82.6538 123.984C82.6538 128.059 85.8485 131.393 89.7538 131.393C93.6592 131.393 96.854 128.059 96.854 123.984C96.8538 119.908 93.659 116.574 89.7538 116.574ZM69 58.4396V65.8489H76.1L88.8805 92.8647L83.5371 101.94C83.0049 102.866 82.6496 104.163 82.6496 105.46C82.6496 110.421 85.8966 112.87 90.3 112.87H131.808V105.745H91.1692C90.6371 105.745 90.2817 105.374 90.2817 104.819C90.2817 104.635 90.6584 103.893 90.6584 103.893L94.2053 98.051H120.652C123.314 98.051 125.623 96.5697 126.864 94.1619L139.645 71.2215C139.856 70.7832 140 70.1091 140 69.3694C140 67.3307 138.402 65.8491 136.45 65.8491H83.9107L80.5375 58.4396H69ZM124.708 116.574C120.802 116.574 117.608 119.908 117.608 123.984C117.608 128.059 120.802 131.393 124.708 131.393C128.613 131.393 131.808 128.059 131.808 123.983C131.808 119.908 128.613 116.574 124.708 116.574Z" fill="white"/>
</svg>
