<svg width="30" height="35" viewBox="0 0 30 35" fill="none" xmlns="http://www.w3.org/2000/svg">
<path d="M15.8738 0.174237L27.4893 4.0714C28.7895 4.50557 29.6687 5.69994 29.6757 7.03847L29.7497 18.6596C29.7726 22.1827 28.4883 25.5994 26.1363 28.2764C25.0545 29.5051 23.668 30.5605 21.8974 31.5043L15.6536 34.842C15.458 34.945 15.2431 34.9982 15.0264 35C14.8097 35.0016 14.593 34.9502 14.3992 34.8489L8.09728 31.5884C6.3073 30.66 4.90844 29.6201 3.81613 28.4085C1.42537 25.7589 0.0969837 22.3577 0.0740804 18.8295L4.23088e-05 7.21694C-0.00696203 5.8767 0.856316 4.67374 2.14947 4.22242L13.7209 0.18625C14.408 -0.0574305 15.1744 -0.0625787 15.8738 0.174237ZM21.4284 12.6326C20.9087 12.1333 20.0718 12.1367 19.5591 12.6429L13.6642 18.4535L11.2505 16.1334C10.7308 15.634 9.89572 15.6392 9.38127 16.1454C8.86859 16.6517 8.87388 17.4651 9.39361 17.9644L12.7463 21.1906C13.007 21.4412 13.3453 21.5647 13.6836 21.5614C14.0218 21.5596 14.3583 21.4326 14.6156 21.1786L21.439 14.4517C21.9517 13.9454 21.9464 13.132 21.4284 12.6326Z" fill="#307C31"/>
</svg>
