<svg width="223" height="167" viewBox="0 0 223 167" fill="none" xmlns="http://www.w3.org/2000/svg">
<ellipse cx="105" cy="93.9211" rx="70" ry="73.0495" fill="#307C31"/>
<ellipse cx="9" cy="9.39208" rx="9" ry="9.39208" fill="#307C31"/>
<ellipse cx="213" cy="94.9645" rx="10" ry="10.4356" fill="#307C31"/>
<ellipse cx="109.5" cy="3.65248" rx="3.5" ry="3.65248" fill="#307C31"/>
<path d="M89.7538 116.574C85.8485 116.574 82.6538 119.908 82.6538 123.984C82.6538 128.059 85.8485 131.393 89.7538 131.393C93.6592 131.393 96.854 128.059 96.854 123.984C96.8538 119.908 93.659 116.574 89.7538 116.574ZM69 58.4399V65.8492H76.1L88.8805 92.8651L83.5371 101.94C83.0049 102.867 82.6496 104.164 82.6496 105.461C82.6496 110.421 85.8966 112.87 90.3 112.87H131.808V105.746H91.1692C90.6371 105.746 90.2817 105.375 90.2817 104.82C90.2817 104.635 90.6584 103.893 90.6584 103.893L94.2053 98.0514H120.652C123.314 98.0514 125.623 96.5701 126.864 94.1622L139.645 71.2219C139.856 70.7836 140 70.1094 140 69.3697C140 67.3311 138.402 65.8494 136.45 65.8494H83.9107L80.5375 58.4399H69ZM124.708 116.574C120.802 116.574 117.608 119.908 117.608 123.984C117.608 128.059 120.802 131.393 124.708 131.393C128.613 131.393 131.808 128.059 131.808 123.984C131.808 119.908 128.613 116.574 124.708 116.574Z" fill="white"/>
</svg>
