<svg width="40" height="40" viewBox="0 0 40 40" fill="none" xmlns="http://www.w3.org/2000/svg">
<path d="M40.0002 20.4442C40.0002 18.8 39.8641 17.6002 39.5695 16.356H20.4111V23.7771H31.6566C31.43 25.6213 30.2057 28.3987 27.4849 30.265L27.4468 30.5134L33.5043 35.1123L33.924 35.1533C37.7782 31.6649 40.0002 26.5322 40.0002 20.4442Z" fill="#4285F4"/>
<path d="M20.4013 39.9978C25.9109 39.9978 30.5362 38.2202 33.9147 35.1539L27.4754 30.2654C25.7523 31.4431 23.4395 32.2652 20.4013 32.2652C15.0051 32.2652 10.4251 28.7768 8.79247 23.9551L8.55317 23.975L2.25425 28.7523L2.17188 28.9767C5.5275 35.5093 12.4202 39.9978 20.4013 39.9978Z" fill="#34A853"/>
<path d="M8.7959 23.9547C8.36513 22.7104 8.11582 21.3772 8.11582 19.9996C8.11582 18.622 8.36513 17.2889 8.77323 16.0446L8.76182 15.7796L2.3842 10.9258L2.17554 11.023C0.792572 13.7338 -0.000976562 16.7779 -0.000976562 19.9996C-0.000976562 23.2214 0.792572 26.2653 2.17554 28.9761L8.7959 23.9547Z" fill="#FBBC05"/>
<path d="M20.4013 7.73443C24.2331 7.73443 26.8178 9.35648 28.2916 10.712L34.0507 5.20141C30.5137 1.97953 25.9109 0.00195312 20.4013 0.00195312C12.4202 0.00195312 5.5275 4.49034 2.17188 11.0229L8.76981 16.0447C10.4251 11.223 15.0051 7.73443 20.4013 7.73443Z" fill="#EB4335"/>
</svg>
