<svg width="40" height="40" viewBox="0 0 40 40" fill="none" xmlns="http://www.w3.org/2000/svg">
<path d="M40 20C40 31.0453 31.0453 40 20 40C8.95464 40 0 31.0453 0 20C0 8.95464 8.95464 0 20 0C31.0453 0 40 8.95464 40 20Z" fill="#0A7BBA"/>
<path d="M31.9502 21.6084V29.8545H27.1699V22.1619C27.1699 20.2296 26.4806 18.9101 24.7484 18.9101C23.429 18.9101 22.6438 19.7997 22.2974 20.6597C22.1703 20.9661 22.139 21.3925 22.139 21.8243V29.8545H17.3571C17.3571 29.8545 17.4215 16.8247 17.3571 15.4758H22.139V17.5141C22.1303 17.5297 22.1164 17.5452 22.1076 17.5609H22.139V17.5141C22.7744 16.5359 23.9076 15.1379 26.4475 15.1379C29.5931 15.1379 31.9502 17.1937 31.9502 21.6084ZM12.3575 8.54541C10.7211 8.54541 9.65234 9.61949 9.65234 11.0296C9.65234 12.41 10.6899 13.5135 12.2949 13.5135H12.3245C13.9922 13.5135 15.0297 12.4101 15.0297 11.0296C14.9983 9.61957 13.9922 8.54541 12.3575 8.54541ZM9.9361 29.8545H14.7146V15.4758H9.9361V29.8545Z" fill="#F2F2F2"/>
</svg>
